<svg aria-hidden="true" style="position: absolute; width: 0; height: 0; overflow: hidden;" version="1.1" xmlns="http://www.w3.org/2000/svg" xmlns:xlink="http://www.w3.org/1999/xlink">
<defs>
<symbol id="icon-chat-logo" viewBox="0 0 32 32">
<path fill="#fee187" style="fill: var(--color1, #fee187)" d="M2.12 19.999c-0.768-1.471-1.203-3.143-1.203-4.916 0-5.874 4.762-10.636 10.636-10.636s10.636 4.762 10.636 10.636-4.762 10.636-10.636 10.636c-2.197 0-4.237-0.666-5.932-1.807l-4.615 1.038 1.114-4.951z"></path>
<path fill="#ffc61b" style="fill: var(--color2, #ffc61b)" d="M11.553 26.636c-2.173 0-4.276-0.602-6.107-1.744l-4.239 0.954c-0.307 0.069-0.627-0.024-0.85-0.246s-0.315-0.543-0.246-0.85l1.042-4.631c-0.755-1.56-1.153-3.293-1.153-5.035 0-6.37 5.183-11.553 11.553-11.553s11.553 5.183 11.553 11.553-5.183 11.553-11.553 11.553zM5.621 22.995c0.181 0 0.359 0.054 0.512 0.156 1.604 1.080 3.478 1.65 5.42 1.65 5.359 0 9.719-4.36 9.719-9.719s-4.36-9.719-9.719-9.719-9.719 4.36-9.719 9.719c0 1.585 0.37 3.096 1.099 4.492 0.1 0.192 0.129 0.414 0.082 0.626l-0.796 3.538 3.202-0.72c0.067-0.015 0.134-0.022 0.201-0.022z"></path>
<path fill="#ffc61b" style="fill: var(--color2, #ffc61b)" d="M21.364 28.47c-0.62 0-1.242-0.054-1.851-0.161-0.499-0.088-0.832-0.563-0.745-1.062s0.563-0.832 1.062-0.745c0.504 0.088 1.020 0.133 1.534 0.133 1.759 0 3.456-0.517 4.909-1.495 0.209-0.141 0.467-0.189 0.713-0.134l2.804 0.631-0.7-3.111c-0.048-0.212-0.019-0.433 0.082-0.626 0.66-1.264 0.995-2.633 0.995-4.068 0-3.653-2.198-6.872-5.6-8.202-0.472-0.184-0.705-0.716-0.52-1.188s0.716-0.704 1.188-0.52c1.972 0.77 3.655 2.1 4.868 3.844 1.242 1.786 1.899 3.883 1.899 6.066 0 1.595-0.362 3.181-1.050 4.611l0.946 4.205c0.069 0.307-0.024 0.627-0.246 0.85s-0.543 0.315-0.85 0.246l-3.842-0.864c-1.679 1.041-3.605 1.589-5.595 1.589z"></path>
<path fill="#ffc61b" style="fill: var(--color2, #ffc61b)" d="M17.116 16.244h-1.161c-0.506 0-0.917-0.411-0.917-0.917s0.411-0.917 0.917-0.917h1.161c0.506 0 0.917 0.411 0.917 0.917s-0.411 0.917-0.917 0.917z"></path>
<path fill="#ffc61b" style="fill: var(--color2, #ffc61b)" d="M12.18 16.244h-1.161c-0.506 0-0.917-0.411-0.917-0.917s0.411-0.917 0.917-0.917h1.161c0.506 0 0.917 0.411 0.917 0.917s-0.411 0.917-0.917 0.917z"></path>
<path fill="#ffc61b" style="fill: var(--color2, #ffc61b)" d="M7.244 16.244h-1.161c-0.506 0-0.917-0.411-0.917-0.917s0.41-0.917 0.917-0.917h1.161c0.506 0 0.917 0.411 0.917 0.917s-0.411 0.917-0.917 0.917z"></path>
</symbol>
<symbol id="icon-google" viewBox="0 0 31 32">
<path fill="#4285f4" style="fill: var(--color1, #4285f4)" d="M31.254 16.299c0-1.311-0.106-2.268-0.337-3.26h-14.971v5.917h8.787c-0.177 1.471-1.134 3.685-3.26 5.173l-0.030 0.198 4.733 3.667 0.328 0.033c3.012-2.782 4.748-6.874 4.748-11.729z"></path>
<path fill="#34a853" style="fill: var(--color2, #34a853)" d="M15.947 31.89c4.305 0 7.919-1.417 10.559-3.862l-5.032-3.898c-1.346 0.939-3.154 1.595-5.528 1.595-4.217 0-7.795-2.781-9.071-6.626l-0.187 0.016-4.922 3.809-0.064 0.179c2.622 5.209 8.008 8.788 14.244 8.788z"></path>
<path fill="#fbbc05" style="fill: var(--color3, #fbbc05)" d="M6.876 19.099c-0.337-0.992-0.531-2.055-0.531-3.154s0.195-2.161 0.514-3.154l-0.009-0.211-4.984-3.87-0.163 0.078c-1.081 2.161-1.701 4.589-1.701 7.158s0.62 4.996 1.701 7.157l5.173-4.004z"></path>
<path fill="#eb4335" style="fill: var(--color4, #eb4335)" d="M15.947 6.165c2.994 0 5.014 1.293 6.165 2.374l4.5-4.394c-2.764-2.569-6.36-4.146-10.665-4.146-6.236 0-11.622 3.579-14.244 8.787l5.156 4.004c1.293-3.845 4.872-6.626 9.089-6.626z"></path>
</symbol>
</defs>
</svg>
